<?xml version="1.0" encoding="UTF-8"?>
<svg viewBox="0 0 389.913 138.307" xmlns="http://www.w3.org/2000/svg">
  <g xmlns="http://www.w3.org/2000/svg" transform="translate(-20.479 -.254)scale(.29904)" fill="#fff">
    <path d="M275.56 293.8a.21.21 0 0 0 .15-.36l-.29-.3a.37.3-17.3 0 0-.2-.08l-15.27-.3a.81.8-26.9 0 1-.47-.15l-14.65-10.33a.85.85 0 0 1 .49-1.55h4.36a4.36 4.34-23.5 0 1 2.96 1.16l4.07 3.8a1.53 1.52 66.4 0 0 1.04.41l17.61-.14a6.26 6.14 49.7 0 1 1.31.12q.01 0 1.83.5c4.18 1.15 5.77-6.45.27-6.24q-1.73.07-2.21 1.68a.92.91 8 0 1-.88.66H259.7a1.48 1.46-23.2 0 1-1-.39l-5.35-4.99a1.33 1.32-23.5 0 0-.9-.35h-8.51a.93.92-11.6 0 1-.85-.56l-1.2-2.82a.48.47-11.7 0 1 .44-.66h12.05a2.01 1.98-22.5 0 1 1.4.57l4.01 4.02a1.6 1.57-22.1 0 0 1.12.46h20.07a1.3 1.3 0 0 1 1 .47c1.81 2.17 4.3 2.67 5.87.13 2.38-3.83-3.65-7.37-5.64-3.52q-.23.43-.54.66-.2.15-.85.14-8.18-.17-18.35-.27a2.13 2.12 66.5 0 1-1.41-.56l-4.53-4.22a1.08 1.06 66.2 0 0-.73-.29h-14.56a.49.49 0 0 1-.45-.29l-1.43-3.35a.21.21 0 0 1 .2-.29h21.83a1.88 1.88 0 0 0 1.33-.55l4.21-4.2a3.34 3.3 22.1 0 1 2.36-.98h13.84a1.46 1.43-23.5 0 1 .97.37c.94.84 1.67 1.44 3.04 1.32 4.96-.43 3.77-8.21-1.66-6.63a1.54 1.46 8.3 0 0-.82.58l-.88 1.24a1.07 1.05-72.2 0 1-.87.46H267.8a2.87 2.85-68.4 0 0-2.09.91l-4.34 4.66a1.26 1.24 21.1 0 1-.92.4h-21.09a1.66 1.65 78.4 0 1-1.52-1.01l-.72-1.68a.61.6-11.5 0 1 .56-.84h22.13a2.3 2.29-68 0 0 1.66-.71q4.36-4.53 6.61-6.5 1.22-1.07 3.67-1.06 17.45.09 22.21.01a1.49 1.48-23.5 0 1 1.05.41l1.35 1.25a1.14 1.11 68.2 0 0 .68.3c6.08.45 5.14-8.17-.34-6.64-1.09.31-1.14 1.07-1.78 1.7a1.3 1.28-65.5 0 1-.86.33l-25.87-.05a1.17 1.13-66.8 0 0-.81.34l-7.72 7.72a1.3 1.28-67.1 0 1-.91.38h-22.63a1.06 1.05-11.3 0 1-.97-.64l-1.44-3.37a.27.27 0 0 0-.36-.14l-.23.1a.06.06 0 0 0-.04.07l.58 3.34a.52.51-5.1 0 1-.51.6h-45.36a1.19 1.18-23.2 0 1-.81-.32l-6.05-5.63a1.84 1.83-23.3 0 0-1.26-.5h-21.63a.78.78 0 0 1-.72-.48l-.98-2.28a.39.38 78.3 0 1 .35-.54h48.38a1.45 1.4 68.5 0 1 1.06.48l.95 1.07a1.47 1.4-13.7 0 0 .78.45c4.07.82 6.29-3.84 2.53-6.35a2.72 2.72 0 0 0-3.26.19q-.58.48-1.48 1.5a.95.93 19.8 0 1-.72.33h-49.49a.49.48 77.6 0 1-.44-.29l-1.63-3.83a.16.16 0 0 1 .15-.23h71.77a1.32 1.28-26.1 0 1 .77.25q6.04 4.47 9.94 9.86a1.66 1.63-17.8 0 0 1.33.67h.38a.41.41 0 0 0 .34-.64q-3.98-5.93-8.91-10.04a.1.1 0 0 1 .07-.18h5.02a.73.71-21.3 0 1 .52.22c3.27 3.45 7.87-.37 5.41-4.1-1.67-2.53-5.14-1.23-5.8 1.45a.59.59 0 0 1-.57.45h-5.97a2.55 2.55 0 0 1-1.91-.86l-2.44-2.76a.51.5-20.8 0 1 .38-.84h33.57a1.17 1.14-22.9 0 1 .79.31l1.29 1.19a1.55 1.52 72.2 0 0 .72.38c6.28 1.23 5.75-8.84-.61-6.38a.57.57 0 0 1-.78-.53v-12.73a.48.48 0 0 1 .48-.48h3.03a.51.5 0 0 0 .51-.5v-14.2a.51.51 0 0 0-.51-.51h-4.45a.49.48-90 0 0-.48.49v11.98a.5.49-90 0 1-.49.5h-21.93a.75.73 82.2 0 1-.71-.55q-.43-1.64-1.64-2.49a.7.69-56.2 0 1-.18-.95c3.6-5.47-4.19-7.61-5.26-3.83q-.17.62-.55.93a.75.74-65 0 1-.43.16l-5.87.11a.86.86 0 0 1-.81-1.2l1.96-4.55a.43.43 0 0 0-.7-.48q-2.18 2.21-2.31 5.64a.62.61 4.6 0 1-.7.59l-.31-.04a.64.63 6.4 0 1-.54-.67c.73-8.61 9.78-14.15 17.64-14.94a.47.46-4.1 0 0 .41-.47v-.02a.45.45 0 0 0-.45-.44c-9.61-.13-17.86 6.44-19.5 15.88a.56.56 0 0 1-.55.46h-74.16a1 .99 85.2 0 1-.98-.83l-.52-2.97a.42.42 0 0 1 .41-.49h65.55a1.31 1.27-27.5 0 1 .71.21q3.45 2.17 5.64-.67a1.24 1.17-27.7 0 0 .25-.73v-1.56a1.01 1-17.2 0 1 .44-.83c8.84-6.08 16.59-10.72 26.95-10.05q3.74.25 16.1 3.72 20.73 5.83 43.82 12.31 7.28 2.05 13.13 2.7 12.26 1.35 24.4 3.22a.29.29 0 0 0 .34-.24l.04-.25a.03.03 0 0 0-.02-.04l-1.5-.46a.68.67-82 0 1-.48-.65v-3.89a.15.14 0 0 0-.15-.14h-.28a.33.33 0 0 0-.33.28l-.39 2.78a.49.48-81.8 0 1-.55.42l-27.19-3.79a.56.55 7.9 0 1-.47-.62l1.07-7.65a.63.62 7.4 0 1 .7-.53q12.04 1.53 26.46 3.52 1.54.21.45 3.03a.79.78 14.6 0 0 .63 1.06l2.22.31a.9.9 0 0 0 1.01-.77l.82-5.87a2.25 2.24 84.4 0 1 1.48-1.81q3.42-1.2 3.6-3a.75.75 0 0 0-1.32-.57c-1.05 1.23-3.57 2.81-5.31 2.93q-2.09.14-1.97 2.04a.92.92 0 0 1-1.05.98l-97.8-13.63a.59.59 0 0 0-.67.51l-.06.42a.83.83 0 0 0 .7.94l67.9 9.46a.34.34 0 0 1 .29.39l-1.1 7.9a.21.21 0 0 1-.27.18q-4.99-1.42-58.95-16.36-3.89-1.08-10.24-.69c-8.28.5-16.59 5.13-23.42 10.13a1.09 1.08-52.6 0 1-1.01.14q-2.19-.81-3.48.65a1.85 1.82-68.9 0 1-1.37.62H138.1a.37.37 0 0 1-.36-.3l-.82-4.7a.24.24 0 0 1 .24-.28q30.68.08 30.85.03.51-.13 1.07.44a1.76 1.62-75.2 0 0 2.74-1.75q-.19-.89-1.28-1.27a1.21 1.2 33.4 0 0-1.18.24l-.26.23a1.68 1.66 24.1 0 1-1.1.41h-30.88a.62.6-3.1 0 1-.61-.53q-1.41-12.43-1.06-25.54a.47.47 0 0 1 .47-.46h45.7a1.08 1.06 62.3 0 1 .62.2l1.58 1.12a2.64 2.62-43.2 0 0 2.89.08l2.06-1.27a.96.96 0 0 1 .5-.14h101.77a1.37 1.35 67.2 0 1 .96.4c5.52 5.68 9.17-4.58 3.17-5.1q-2.05-.18-3.24 1.81a.97.96 15.3 0 1-.83.47H189.26a1.08 1.06-19 0 1-.84-.4q-2.84-3.52-6.14 0a1.19 1.18-67.8 0 1-.85.36h-40.76a.28.28 0 0 1-.14-.52c4.78-2.84-.39-9.57-4.32-4.55a.27.27 0 0 1-.48-.24q2.11-7.45 6.43-13.47a.24.24 0 0 0-.05-.33v-.01a.25.24-51.9 0 0-.28.04l-3.83 3.76a.67.67 0 0 1-1.14-.54c.71-7.76 6.95-16.7 12.43-21.5a.33.33 0 0 0-.29-.57q-5.59 1.28-9.72 5.58a.45.45 0 0 1-.59.04l-.24-.19a.31.31 0 0 1-.06-.43c3.18-4.17 7.75-6.78 11.83-9.22a.52.52 0 0 0-.31-.96c-2.49.21-4.44 1.9-7.23 3.8a.48.46-59.1 0 1-.33.09q-.18-.02-.27-.09a.69.6 37.7 0 1-.19-.94q2.57-2.93 5.38-5.3 12.69-10.69 28.08-17.71a.26.26 0 0 0-.11-.5c-5.58-.1-11.98 2.64-16.43 5.6a.4.39 56.7 0 1-.55-.12l-.01-.01a.39.39 0 0 1 .12-.54q8.03-5.1 17.38-8.37a.36.36 0 0 0-.14-.7q-7.52.63-14.36 3.74a.48.47 72.7 0 1-.66-.35l-.05-.3a.4.39-20.5 0 1 .19-.41q5.82-3.55 12.44-5.22 5.76-1.44 10.14-2.62a.24.24 0 0 0-.05-.47q-8.08-.31-16.27 1.25a.46.45-10.2 0 1-.53-.36l-.04-.27a.22.2 77.6 0 1 .14-.24q12.99-4.4 25.3-4.83 3.09-.1 3.99 2.24a.49.48-26.8 0 0 .72.23q2-1.29 4.51-1.93a.38.37 39.2 0 0-.08-.74l-6.61-.35a.64.64 0 0 1 .03-1.28h5.2a.42.41-39.8 0 0 .08-.82q-3.6-.63-7.59-.33c-6.29.48-12.25.92-18.37 2.45a.33.33 0 0 1-.4-.27l-.05-.27a.19.18 78.1 0 1 .13-.21q12.96-3.43 26.64-4.02a.4.4 0 0 0 .12-.77q-1.9-.68-4.4-.81-11.12-.59-19.01-.17a.56.56 0 0 1-.59-.56v-.31a.36.36 0 0 1 .29-.35q12.78-2.63 23.79-2.29 13.54.42 18.75.15a1.31 1.28 22.5 0 0 .8-.32q1.02-.9 3.05-.76 3.12.23 8.58.38a.39.39 0 0 0 .37-.54q-.37-.88-1.26-1.07c-8.72-1.85-13.29-2.27-18.05-4.47a.36.36 0 0 1 .17-.68c4.39.2 9.15.51 14.79 1.65q6.98 1.41 15.8 1.3 6.74-.08 11.7 4.64c3.31 3.15 9.16 1.89 12.61 3.12q3.72 1.32 5.53 6.17a.95.95 0 0 0 .89.62h4.54a.39.38-20.8 0 0 .29-.64l-.4-.45a1.4 1.38 66.1 0 0-1.2-.47l-3.19.34a.25.24-13.9 0 1-.24-.14l-.25-.59a.37.36-7.7 0 1 .39-.5l2.67.38a.45.45 0 0 0 .5-.53q-.15-.82-.44-1.07a.5.5 0 0 0-.73.08q-.01.01-.06.19a.32.31-76.9 0 1-.36.23q-1.34-.23-2.12-.04a.64.63 65.7 0 1-.67-.26q-.33-.49-.36-.75a1.07 1.01 14.4 0 1 1.65-.91q.82.55 1.26.82a.32.31 86.3 0 0 .41-.47q-.15-.18-1.9-1.46a1.21.94-7 0 0-.15-.09l-13.86-6.2a.52.52 0 0 1-.3-.47v-.5a.35.35 0 0 1 .54-.3q6.01 3.96 12.6 4.73a4.82 4.75 59.5 0 1 1.35.36l15.02 6.46a.25.25 0 0 0 .32-.11l.13-.24a.2.2 0 0 0-.05-.24l-10.54-8.31a.51.51 0 0 1-.14-.64l.15-.27a.5.49-55.9 0 1 .76-.15q11.6 9.79 26.02 14.08 1.63.48 3.58.55a.44.44 0 0 0 .35-.73c-2.39-2.78-7.77-5.16-12.93-7.9a.58.58 0 0 1-.28-.67l.01-.06a.44.44 0 0 1 .59-.28q9.16 3.97 19.05 6.42a.58.58 0 0 0 .54-.98q-2.58-2.51-5.72-3.41a.27.26-78.7 0 1-.19-.29l.05-.34a.14.13 11.4 0 1 .17-.11q2.53.75 11.75 3.06c5.19 1.3 11.96 6.56 8.75 12.77q-1.75 3.38-2.07 3.71a.87.86 53.4 0 0-.12.83l1.69 4.4a.43.42 41.7 0 0 .81-.04q.39-1.56-.31-3.93a.51.51 0 0 1 .95-.35l2.02 4.73a.53.53 0 0 0 1-.07q.32-1.17-.39-2.36-.61-1.02-3.27-5.11a.47.46-35 0 1 .11-.62l.21-.16a.22.22 0 0 1 .29.03l4.71 5.32a.18.18 0 0 0 .3-.05l.13-.29a.49.45 47 0 0 0-.35l-4.11-9.62a.18.18 0 0 1 .09-.24l.57-.24a.56.56 0 0 1 .73.28c1.6 3.45 5.62 6.15 7.31 8.09a.47.47 0 0 0 .8-.44q-1.13-4.04-3.8-7.72a.28.28 0 0 1 .43-.36q4.66 4.49 6.92 9.78a.45.45 0 0 0 .81.05q.06-.09-.07-.94a.42.42 0 0 1 .8-.22l.62 1.46a.32.32 0 0 0 .62-.13q0-1.63-.97-2.96a.53.52 44.5 0 0-.86 0l-.29.4a.58.58 0 0 1-.9.06q-.84-.92-.7-2.13.08-.74 1.29-.63a.5.5 0 0 0 .42-.83l-8.6-9.71a.36.36 0 0 1 .03-.51l.28-.25a.47.46-40.3 0 1 .66.05q3.96 4.7 9.13 8.06a.36.36 0 0 0 .48-.08l-.05-.01a.03.02 58.3 0 0-.02-.01l-6.22-7.19a.45.45 0 0 1 .07-.66l.23-.18a.42.42 0 0 1 .59.09q3.02 4.27 8.49 7.02a.37.37 0 0 0 .41-.62q-3.31-2.78-3.01-6.58a.46.46 0 0 1 .83-.23l2.06 2.83a1.92 1.84-88.8 0 0 .22.24c4.05 3.45 10.26 7.18 8.05 13.56q-.81 2.33-.06 4.18c2.58 6.32.04 13.34-4.79 17.5a.21.21 0 0 0-.05.24l1.15 2.69a.27.27 0 0 0 .45.08l3.6-3.86a1.1 1.03-20.7 0 0 .27-.55l.57-4.11a.38.38 0 0 1 .72-.1l.43 1.01a.31.31 0 0 0 .6-.13q-.13-4.47-.69-8.24-.07-.53.27-1.39a.34.34 0 0 1 .63 0c3.39 8.93 1.75 14.93-1.45 24.55q-.48 1.43-.8 5a.46.46 0 0 1-.46.42h-.48a.31.31 0 0 1-.31-.31v-4.16a.17.17 0 0 0-.29-.11l-6.73 7.22a.48.48 0 0 1-.81-.19q-.51-1.67 1.01-3.17a.22.03 54.6 0 0-.1-.19q-.02-.02-.03-.04a.04.03-38 0 0-.05 0l-7.92 5.95a.43.43 0 0 1-.68-.4c.56-3.72 4.78-6.46 7.34-9.04a.23.22-46 0 0 0-.31l-.18-.18a.14.13 43.4 0 0-.19 0q-4.45 4.76-10.94 6.7a.87.87 0 0 0-.58 1.08c1.75 5.77 3.08 11.17 3.49 17.83.47 7.88.73 16.51 2.54 24.72a.32.32 0 0 1-.31.39h-14.16a1.25 1.24 13.9 0 0-1.1.66l-2.52 4.74a4.36 4.35 2.5 0 1-2.12 1.94l-5.97 2.55a.89.88-11.7 0 0-.54.81v.62a.44.44 0 0 0 .63.4l7.74-3.64a1.78 1.75 4.1 0 0 .67-.57l1.55-2.2a.65.64-50.6 0 1 .96-.1q.12.11.27.28a.72.67 66.9 0 0 .5.22h12.21a.35.35 0 0 0 .35-.35v-.34a.2.2 0 0 0-.25-.19q-2.77.67-2.77-1.07a1.2 1.19-90 0 0-1.19-1.2h-8.22a.35.34-86.3 0 1-.34-.39l.05-.35a.06.06 0 0 1 .06-.05h14.1a1.06 1.06 0 0 1 1.01.73q1.8 5.58-.85 10.91a.95.94 29.6 0 0 .34 1.22q3.57 2.26 2.02 5.64a.49.49 0 0 1-.72.19q-1.09-.76-1.44-2.55a.4.4 0 0 0-.76-.06q-.77 2.12-3.18.67a1.86 1.86 0 0 0-2.79 1.3l-2.92 18.11a1.17.99-51.5 0 0 .01.33q.16.78 1.59.61a.93.93 0 0 1 .97 1.29q-.78 1.81-.62 3.02a1.02 1.02 0 0 0 2 .12q.31-1.19 1.26-6.14.24-1.28 1.84-2.23a.52.52 0 0 1 .78.36l.17.98a.4.4 0 0 0 .63.25l.3-.23a.23.22-19.7 0 0 .09-.18v-2.04a.45.45 0 0 1 .83-.23q6.23 10.41 15.59 23.79.95 1.36 1.77 3.75c1.98 5.74-6.17 9.72-10.2 11.31-4.43 1.75-9.88 6.57-9.17 11.76q.09.72 1.42 1.95 2.71 2.51.07 6.41-2.41 3.58-6.89 4.5a.54.54 0 0 0-.18.98q5.12 3.39 3.71 8.05a3.02 3.01-77.6 0 1-3.29 2.11l-1.57-.22a1.18 1.17 26.2 0 0-.99.33c-4.72 4.64-3.02 8.04-1.18 13.33 1.38 3.97 1.42 8.55-.38 12.36q-4.46 9.45-16.33 7.79-.06-.01-.55-.16-.31-.1-.67.05-.43.19-.67.17-6.41-.52-18.26-.38-3.11.04-4.5 1.08c-3.68 2.74-5.89 8.9-7.09 13.35q-.39 1.47-3.5 15.07a.79.78-83.5 0 1-.76.61h-11.64a4.95 4.77 37.3 0 0-1.12.13l-4.51 1.07a1.07 1.04 10.8 0 0-.62.41q-3.28 4.63-3.82 5.57c-2.98 5.08-7.26 3.29-10.35-.51a.7.69-43.3 0 1 .03-.9l.82-.88a.19.19 0 0 0-.18-.32q-2.29.43-3.84 2.07a.63.63 0 0 0 .25 1.03q1.98.68 1.14 1.83a.5.5 0 0 0 .41.79h.83a.36.36 0 0 1 .32.53c-1.46 2.7 3.39 4.86 4.72 6.3a.34.33-21.1 0 1-.25.56h-21.83a.6.6 0 0 0-.6.59q-.01.37-.02.39a.53.53 0 0 1-1.02-.09q-.25-1.3-1.24-1.3-41.36-.08-86.33-.03a.4.4 0 0 1-.29-.68l13.2-13.2a1.62 1.59-66.8 0 1 1.12-.46h48.63a.94.93 69.7 0 1 .71.33c3.43 4.14 8.26-.02 5.74-3.49q-.56-.78-.58-.85a1.04 1.02 55.9 0 1 .17-.94c2.97-3.81-2.15-7.8-5.1-4.18a1.1 1.08-70.3 0 1-.85.41h-41.18a.21.2-82.2 0 1-.19-.26l1.41-4.91a.37.36 7 0 1 .36-.27h62.81a.45.43 66.9 0 1 .31.13l15.08 17.04a.69.69 0 0 0 .97.06q1.2-1.07 2.7-1.36a.32.31-26.4 0 0 .18-.52l-13.23-14.94a.3.29 69.3 0 1 .22-.49h21.43a1.1 1.08 71.2 0 1 .87.44l.88 1.18a1.83 1.82-8.7 0 0 .81.59c4.37 1.6 6.89-4.87 2.35-6.35q-2.47-.8-3.87 1.52a.98.97 15 0 1-.84.48h-22.95a.66.66 0 0 1-.65-.57l-.87-6.55a.42.42 0 0 1 .41-.48h36.29a1.35 1.32 66.3 0 1 .92.37l.91.84a1.63 1.54-15.2 0 0 .71.38c2.95.67 5.27-1.85 4.15-4.64-1.03-2.57-4.77-3.07-6-.32a1.1 1.08-77.8 0 1-.99.65H233.3a.84.83 0 0 1-.84-.83v-2.64a.61.6 0 0 1 .61-.6q27.13.07 45.07.05c1.4 0 1.63.38 2.35 1.34 1.76 2.34 5.23.67 5.63-1.81.59-3.63-4.32-5.79-6.2-2.28a1.17 1.16 14.3 0 1-1.02.6h-46.6a.77.76 0 0 1-.77-.76v-2.4a.49.49 0 0 1 .49-.49h76.62a3 3 0 0 1 1.1.21l7.76 3.11a.24.23-68 0 0 .3-.13l.23-.53a.09.09 0 0 0-.04-.11l-20.33-10.84a.93.92 13.8 0 1-.5-.82v-1.02a1.1 1.06-62.6 0 0-.18-.6q-2.38-3.45-5.25-.86a1.11 1.1 36.2 0 1-1.21.18q-4.99-2.29-19.7-6.17-1.22-.32-2.17-2.04a.42.41 75.5 0 1 .36-.62h7.32a1 .99 71.1 0 1 .79.39q1.91 2.54 4.36 1.31c5.74-2.9-2.13-10.64-4.73-3.61a.76.75-80.1 0 1-.71.5h-8.54a.68.67 67.2 0 1-.48-.2l-5.66-5.66a.17.16 67.4 0 1 .11-.28zM220.53 75.52l2.92 2.06a2.32 2.3-24.8 0 0 1.16.42l5.14.44a.59.59 0 0 0 .27-1.14q-4.65-1.83-9.34-2.2a.23.23 0 0 0-.15.42m128.74 26.38q-1.56.39-2.3-.67a.28.28 0 0 0-.5.09q-.29 1.21.65 1.54 1.04.37 2.4.24a.39.39 0 0 0 .35-.39v-.34a.48.48 0 0 0-.6-.47m-24.95 31.51q-2.22.84-5.82 1.45a.22.22 0 0 0-.18.23q0 .33.3.34 2.39.08 5.98-1.27 3.58-1.35 5.32-2.99.22-.21 0-.46a.22.22 0 0 0-.29-.05q-3.1 1.92-5.31 2.75m.46 5.88c5.04-1.25 8.39-1.95 12.44-5.94a.3.3 0 0 0-.01-.43l-.05-.05a.3.3 0 0 0-.41.01q-2.97 2.98-4.96 3.69-5.36 1.91-7 2.41a.19.19 0 0 0-.13.24v.01a.11.1-16.2 0 0 .12.06m12.02-.97q-2.23 1.44-3.76 1.79-2.16.49-3.41 1.16a.2.2 0 0 0 .12.37q4.37-.73 7.45-2.71 3.07-1.98 5.55-5.65a.2.2 0 0 0-.29-.27q-1.13.86-2.47 2.63-.95 1.24-3.19 2.68m-16.735 1.756a.8.71 46.1 0 0-.043-1.068.8.71 46.1 0 0-1.067-.084.8.71 46.1 0 0 .043 1.068.8.71 46.1 0 0 1.067.084m4.604 1.83a.51.37 76.5 0 0 .24-.582.51.37 76.5 0 0-.478-.41.51.37 76.5 0 0-.24.582.51.37 76.5 0 0 .478.41m1.714 47.047a.45.45 0 0 0-.602-.205l-7.197 3.54a.45.45 0 0 0-.205.603l.018.036a.45.45 0 0 0 .603.205l7.195-3.54a.45.45 0 0 0 .206-.603zm-23.899 11.4a.65.65 0 0 0-.508-.766l-30.487-6.147a.65.65 0 0 0-.765.508l-.008.04a.65.65 0 0 0 .508.765l30.487 6.147a.65.65 0 0 0 .765-.508zm-27.754 7.497.05 4.32a1.01.99 76.3 0 1-.53.89q-2.05 1.05-.44 2.89c1.91 2.19 5.12-1.03 3.31-2.73q-.77-.73-.83-.8a1.78 1.72 28.3 0 1-.38-1.19q.19-3.04.07-3.53a.63.63 0 0 0-1.25.15m35.32 5.53c-.38 2.12.86 3.72 3.24 2.98a1.5 1.46 7.3 0 0 .81-.61q.74-1.13 1.01-3.23a1.06 1.04 28.1 0 0-.27-.86q-1.11-1.23-2.83-1.41a.78.77-75.8 0 0-.81.49q-.66 1.68-2.46.65a.65.64 28.7 0 0-.89.26l-.05.1a.74.72-59.3 0 0 .23.94q.64.44 1.5.21a.42.42 0 0 1 .52.48m8.95-1.4-2.18-.31a.78.78 0 0 0-.88.67l-.67 4.84a1.73 1.53-82.1 0 0 1.27 1.93l.7.09a1.73 1.53-82.1 0 0 1.75-1.5l.67-4.84a.78.78 0 0 0-.66-.88m3.52.9a.63.58-21.3 0 0-1.08-.42q-.52.56-.48 1.67a.33.33 0 0 0 .54.25q.91-.74 1.02-1.5m6.27.9a2.37 1.16-29.6 0 0-2.633.161 2.37 1.16-29.6 0 0-1.488 2.18 2.37 1.16-29.6 0 0 2.634-.162 2.37 1.16-29.6 0 0 1.488-2.18m2.02 2.69-1.51 12.25a.6.6 0 0 0 .53.67l1.24.15a2.49 1.38 7 0 0 2.64-1.07l1.31-10.7a2.49 1.38 7 0 0-2.3-1.67l-1.24-.15a.6.6 0 0 0-.67.52m-4.62 4.83-.53 3.74a1.03 1.03 0 0 0 .7 1.12l.27.09a.39.39 0 0 0 .51-.32l1.06-7.6a.8.8 0 0 0-.68-.9l-4.98-.69a1.52 1.51-82.1 0 0-1.71 1.3l-.14.98a1.65 1.64 4 0 0 1.63 1.87h3.51a.37.36-86.5 0 1 .36.41m-54.38 14.59c1.18-1.17.86-2.87 2.78-3.32 2.05-.47 3.08-3.13 2.68-4.82-1.2-5.04-8.29-4.69-8.7.5-.21 2.57-1.01 7.68 2.29 7.98a1.21 1.18 24.6 0 0 .95-.34m69.66 19.81q-1.64-4.32-.92-7.18c.79-3.18 2.6-8.47-1.85-8.58-3.42-.08-4.27 4.73-4.58 7.5-.44 3.91 2.05 9.91 6.98 8.93a.5.5 0 0 0 .37-.67m-36.97 6.21a1.55 1.55 0 0 0-1.55-1.55 1.55 1.55 0 0 0-1.55 1.55 1.55 1.55 0 0 0 1.55 1.55 1.55 1.55 0 0 0 1.55-1.55m26.68-.4a.79.79 0 0 0-.79-.79.79.79 0 0 0-.79.79.79.79 0 0 0 .79.79.79.79 0 0 0 .79-.79m1.57 1.35q-.33.41-.31.72a.73.72 58.1 0 0 1.35.32q.49-.87-.19-1.24-.47-.26-.85.2m-1.225 3.18a.26.26 0 0 0-.085-.359l-3.203-1.97a.26.26 0 0 0-.358.085l-6.204 10.085a.26.26 0 0 0 .085.358l3.203 1.97a.26.26 0 0 0 .358-.085zm-1.787 8.692a.48.48 0 0 0-.141-.664l-.034-.022a.48.48 0 0 0-.664.142l-4.117 6.34a.48.48 0 0 0 .141.664l.034.022a.48.48 0 0 0 .664-.142zm7.593 6.885a1.19 1.19 0 0 0-1.188-1.192l-5.54-.01a1.19 1.19 0 0 0-1.192 1.188l-.002 1.16a1.19 1.19 0 0 0 1.188 1.192l5.54.01a1.19 1.19 0 0 0 1.192-1.188zm-52.55 10.493a3.41 3.26-9.8 0 0-3.916-2.632 3.41 3.26-9.8 0 0-2.805 3.792 3.41 3.26-9.8 0 0 3.915 2.632 3.41 3.26-9.8 0 0 2.805-3.792"/>
    <path d="M360.06 121.59q-.53.51-.62.54a.68.68 0 0 1-.85-.34q-.47-.95.18-1.56.64-.61 1.56-.09a.68.68 0 0 1 .3.86q-.04.09-.57.59m-3.18 1.81q-.03-.77.32-1.35a.42.42 0 0 1 .76.07q.39 1.03-.24 1.66a.52.49 67.7 0 1-.84-.38m-220.54 38.42q.28.12.95 1.22a.45.44 68.7 0 1-.29.67q-.83.15-1.39-.48a.88.74 77 0 1 .73-1.41m207.65 49.14.97-6.95a.52.51 23.1 0 1 .83-.33l.24.19a1.61 1.6-67 0 1 .6 1.49l-.78 5.58a.82.81-82 0 1-.92.7l-.48-.06a.55.55 0 0 1-.46-.62m-128.67-.45v3.67a.35.35 0 0 1-.35.35h-73.21a.35.35 0 0 1-.34-.29l-.64-3.67a.35.35 0 0 1 .35-.41h73.84a.35.35 0 0 1 .35.35m2.31-.28h9.97a.84.83-65.8 0 1 .55 1.46l-2.31 2.04a3.44 3.37 23.8 0 1-2.26.85h-5.57a.69.68 0 0 1-.69-.68v-3.37a.31.3 0 0 1 .31-.3m126 2.67a.14.14 0 0 1 .17-.11l.04.01a2.09 1.99-76.7 0 1 1.46 2.49l-.06.26a2.09 1.99-76.7 0 1-2.42 1.57l-.05-.01a.14.14 0 0 1-.1-.17zm-116.1 4.33 1.82-.32a.55.55 0 0 1 .53.87q-3.45 4.55-.11 8.33a.38.38 0 0 1-.28.63h-3.86a.69.68 87.2 0 1-.68-.62q-.31-2.94.79-7.23a2.25 2.25 0 0 1 1.79-1.66m-11.53.29 1.51 8.68a.31.31 0 0 1-.31.36h-19.04a.3.3 0 0 1-.18-.06l-12.31-8.68a.31.31 0 0 1 .18-.56h29.85a.31.31 0 0 1 .3.26"/>
    <path d="M196.75 229.19h20.98a.51.51 0 0 1 .5.42l.42 2.41a.51.51 0 0 1-.51.6h-68.9a.51.51 0 0 1-.47-.31l-6.11-14.3a.51.51 0 0 1 .47-.71h36.44a.5.5 0 0 1 .29.09l16.6 11.71a.5.5 0 0 0 .29.09m26.65-11.93a.26.26 0 0 1 .26.31q-1.17 6.14-.26 8.43a.5.5 0 0 1-.46.68h-2.45a.86.86 0 0 1-.85-.72l-1.45-8.33a.32.31 85.3 0 1 .31-.37zm14.58 11.94a.2.2 0 0 1 .14-.35h1.22a1.89 1.86-23 0 1 1.29.51l1.44 1.33a1.59 1.53-17.6 0 0 .81.4c4.73.77 6.2-5.59 2.35-6.62q-3.08-.82-4.21 1.73a.72.72 0 0 1-.66.43h-6.2a4.28 4.27 90 0 1-4.27-4.28l-.01-.87a4.23 4.22 90 0 1 4.22-4.23h22.55a.63.63 0 0 1 .63.62q.1 3.76-.08 8.58c-.05 1.42.71 1.7.1 3.34q-.57 1.5.81 1.91a.49.49 0 0 1-.14.95h-15.92a.92.89-22.3 0 1-.63-.25zm-5.45.01 4 2.82a.37.37 0 0 1-.21.67h-14.26a.37.37 0 0 1-.34-.22l-1.21-2.82a.37.37 0 0 1 .34-.52h11.46a.37.37 0 0 1 .22.07m-80.39 10.15-1.6-3.73a.31.31 0 0 1 .29-.43h68.76a.3.3 0 0 1 .23.1l3.3 3.73a.31.31 0 0 1-.23.52h-70.47a.31.31 0 0 1-.28-.19m10.46 24.48-3.94-9.2a.44.44 0 0 1 .41-.61h20.13a.44.44 0 0 1 .3.12l6.84 6.37a.44.44 0 0 0 .3.12h47.21a.44.44 0 0 1 .4.27l1.11 2.59a.44.44 0 0 1-.41.61H163a.44.44 0 0 1-.4-.27"/>
    <ellipse rx="1.32" ry="1.11"/>
    <path d="m236.13 266.86 1.28 3a.43.43 0 0 1-.39.6h-71.26a.43.43 0 0 1-.39-.26l-1.28-3a.43.43 0 0 1 .39-.6h71.26a.43.43 0 0 1 .39.26m-68.92 9.75-.58-3.28a.31.31 0 0 1 .31-.36h71.2a.31.31 0 0 1 .3.26l.57 3.28a.31.31 0 0 1-.31.36h-71.19a.31.31 0 0 1-.3-.26m57.41 4.52v11.25a.32.32 0 0 1-.32.32h-53.79a.32.32 0 0 1-.32-.27l-1.95-11.25a.32.32 0 0 1 .32-.37h55.74a.32.32 0 0 1 .32.32m27.56 11.35a.18.18 0 0 1-.11.32h-24.53a.59.58-4.6 0 1-.58-.49l-1.89-10.88a.53.52-5 0 1 .52-.61h14.25a.78.77-8.7 0 1 .74.54q1.02 3.18 2.19 4.08 3.3 2.51 9.41 7.04"/>
    <rect width="54.84" height="4.88" x="170.68" y="294.73" rx=".51"/>
    <path d="m228.21 299.29-.69-3.98a.45.45 0 0 1 .44-.53h27.43a.45.45 0 0 1 .28.1l5.05 3.98a.45.45 0 0 1-.28.8h-31.79a.45.45 0 0 1-.44-.37"/>
    <rect width="54.92" height="3.98" x="171.28" y="301.91" rx=".43"/>
    <path d="M284.1 311.83a.16.16 0 0 1-.05.31q-33.23-.01-43.06-.02-2.47 0-3.46-1.07-2.23-2.41-4.95-4.83a1.7 1.68-23.8 0 0-1.13-.43H230a.89.89 0 0 1-.88-.74l-.44-2.53a.62.62 0 0 1 .61-.73h33.52a1.57 1.56 76.2 0 1 1.39.85c1.66 3.28 3.35 4.41 7.25 5.41q7.27 1.87 12.65 3.78"/>
    <path d="M303.08 319.08a.26.26 0 0 1-.12.5h-71.33a.7.69-3.8 0 1-.69-.6l-1.38-10.45a.64.63-72.3 0 1 1.06-.55l6.14 5.72a1.89 1.88-23.4 0 0 1.28.5h52.4a1.3 1.29 71.2 0 1 1.03.51q.94 1.2 2.56 1.22c2.92.04 6.71 1.96 9.05 3.15m-75.93-10.37v10.36a.45.45 0 0 1-.45.45h-3.2a.45.45 0 0 1-.31-.12l-3.08-2.87a.45.45 0 0 0-.31-.12h-48.09a.45.45 0 0 1-.45-.45v-7.25a.45.45 0 0 1 .45-.45h54.99a.45.45 0 0 1 .45.45"/>
    <path d="M171.11 318.59h47.42a.45.45 0 0 1 .31.12l3 2.8a.45.45 0 0 0 .31.12h5.47a.45.45 0 0 1 .45.45v2.64a.45.45 0 0 1-.45.45h-56.51a.45.45 0 0 1-.45-.45v-5.68a.45.45 0 0 1 .45-.45m-1.34 12.35v-3.15a.5.5 0 0 1 .5-.5h58.04a.5.5 0 0 1 .5.5v3.15a.5.5 0 0 1-.5.5h-58.04a.5.5 0 0 1-.5-.5m59.82 3.55v6.89a.33.33 0 0 1-.33.33h-61.25a.33.33 0 0 1-.33-.38l.96-6.89a.33.33 0 0 1 .33-.28h60.29a.33.33 0 0 1 .33.33m-21.35 19.02-.86 2a.34.34 0 0 1-.31.21h-45.88a.34.34 0 0 1-.23-.59l2.25-2a.34.34 0 0 1 .23-.09h44.48a.34.34 0 0 1 .32.47m72.43 5.66-.4 2.91a1.34 1.34 0 0 1-1.04 1.12l-9.5 2.12a1.97 1.96-74.5 0 0-1.02.58l-6.49 6.96a.76.75-60.5 0 1-.77.22q-1.21-.33-2.67-.06a1.44 1.44 0 0 1-1.35-.47l-4.13-4.65a1.15 1.14-18.5 0 1 .95-1.9c2.19.18 5.09.35 6.57-1.93q3-4.62 4.65-7a.69.69 0 0 1 .85-.23q.52.24.5.87a.94.84.3 0 0 .95.86q9.77-.05 12.36-.03a.55.55 0 0 1 .54.63"/>
    <path d="M274.21 411.2h-17.02a1.02.99-22.5 0 1-.7-.28l-32.34-30.12a1.1 1.1 0 0 0-.76-.3h-79.28a.72.72 0 0 1-.72-.72v-2.58a.64.64 0 0 1 .64-.64h85.7a.9.86-22.8 0 1 .6.23l28.75 26.36a1.08 1.08 0 0 0 .83.29q14.44-1.24 31.06-1.02a.32.32 0 0 0 .32-.32v-.25a.15.14 90 0 0-.14-.15l-29.6-.38a.66.65 66.5 0 1-.45-.18l-27.35-25.47a.12.12 0 0 1 .08-.21h29.27a1 .98-70.2 0 0 .77-.37l6.19-7.38a1.02.97-73.9 0 1 .6-.35l7.56-1.32a.37.37 0 0 1 .42.46c-2.04 7.45-4.01 15.67-2.59 23.54a3.43 3.42 12.5 0 0 1.4 2.19l6.72 4.75a.5.5 0 0 0 .64-.76q-2.71-2.66-5.11-7.5a.21.21 0 0 1 .3-.28c5.06 2.87 11.05 5.3 15.31 9.6a.63.62-26.5 0 1-.36 1.06c-2.79.41-3.59 3.45-1.63 5.52 1.63 1.72 4.17 1.23 5.29-.75a.69.69 0 0 1 .82-.31q1.19.38 11.23 5.29 11.56 5.64 26.42 9.27 9.86 2.41 14.26 4.21c17.54 7.14 33.09 21.94 38.45 40.53a.39.39 0 0 1-.38.5h-81.12a.83.83 0 0 1-.78-.54c-3.41-8.84-11.35-18.69-19.21-24.87-6.32-4.98-15.85-8.1-23.08-10.43a3.3 3.22 74.7 0 1-1.21-.71l-42.58-39.66a.97.97 0 0 0-.66-.26h-76.84a.5.49 0 0 1-.5-.49v-2.38a.41.41 0 0 1 .41-.41h77.86a1.24 1.21-22.8 0 1 .84.33l30.6 28.5a1.01.98 64.1 0 0 .75.27q5.66-.34 17.08-.79 1.24-.05 3.27-.37a.18.18 0 0 0-.03-.35m11.91.09a3.46 3.46 0 0 0-3.46-3.46 3.46 3.46 0 0 0-3.46 3.46 3.46 3.46 0 0 0 3.46 3.46 3.46 3.46 0 0 0 3.46-3.46m-10.32.06q.2.27.51.17a.18.18 0 0 0 .07-.3q-.06-.06-.22-.2a.25.25 0 0 0-.36.33"/>
    <path d="M251.54 421.44c-2.1-1.13-5.12-2.97-8.45-4.09q-8.11-2.72-21.4-6.24c-2.19-.59-4.88-2.59-6.74-4.61q-5.73-6.26-7.44-7.69c-3.25-2.7-6.71-2.6-11.55-2.57q-8.12.06-45.56.08a4.57 4.52 66.1 0 1-3.08-1.21l-3.11-2.9a.64.64 0 0 1 .44-1.11h74.57a1.09 1.07-23.1 0 1 .74.29l31.85 29.67a.24.23 80.5 0 1-.27.38"/>
  </g>
  <path d="M130.663 52.701v9.969h6.69v6.11h-6.69v16.464q0 2.315.772 3.087c.772.772 1.544.772 3.087.772q1.672 0 2.83-.258v7.14q-1.93.32-5.402.32-5.274 0-7.847-1.8c-2.572-1.8-2.572-3.28-2.572-6.238V68.779H116v-6.11h5.53v-9.968zm30.485 9.068q1.158 0 1.994.322v8.49a15.4 15.4 0 0 0-3.28-.322q-9.004 0-9.004 10.676V95.92h-9.133V62.67h8.683v6.174h.129q1.35-3.216 4.276-5.145c2.927-1.93 4.062-1.93 6.335-1.93m20.902 0q14.535.065 14.535 9.454v17.622q0 4.888 1.158 7.075h-9.261a13.5 13.5 0 0 1-.643-3.216q-4.052 4.116-11.191 4.116-5.21 0-8.264-2.636c-3.055-2.637-3.055-4.203-3.055-7.332q0-4.567 2.894-7.075 2.958-2.637 10.74-3.344 5.531-.579 7.01-1.447c1.48-.868 1.48-1.47 1.48-2.67q0-2.25-1.35-3.344c-1.351-1.093-2.403-1.093-4.503-1.093q-2.894 0-4.373 1.19c-1.48 1.19-1.566 2.068-1.737 3.827h-9.132q.321-5.467 4.502-8.297c4.18-2.83 6.518-2.83 11.19-2.83m-7.589 24.697q0 4.245 5.596 4.245 7.331-.065 7.396-7.525v-3.537q-1.094 1.093-5.531 1.607-3.86.45-5.66 1.576c-1.8 1.126-1.8 1.962-1.8 3.634M236.073 50v45.92h-8.682v-4.245h-.129q-2.958 5.145-10.097 5.145-6.882 0-10.901-5.016c-4.02-5.017-4.02-7.612-4.02-12.799q0-7.589 4.084-12.412c4.084-4.824 6.27-4.824 10.644-4.824q3.023 0 5.692 1.254c2.669 1.255 3.16 2.068 4.148 3.698h.129V50zm-24.696 29.263q0 4.566 2.154 7.62c2.155 3.056 3.4 3.056 5.885 3.056q3.923 0 5.885-2.862c1.961-2.862 1.961-4.534 1.961-7.879s-.685-5.939-2.058-7.782-3.322-2.765-5.853-2.765q-3.923 0-5.949 2.894c-2.025 2.894-2.025 4.502-2.025 7.718M252.346 50v7.525h-9.133V50zm0 12.67v33.25h-9.133V62.67zm26.304-.9q6.367 0 9.229 3.215c2.862 3.216 2.862 5.553 2.862 10.226V95.92h-9.133V77.076q0-4.116-1.318-6.11c-1.318-1.994-2.39-1.994-4.534-1.994q-3.73 0-5.403 2.251c-1.672 2.251-1.672 3.965-1.672 7.397v17.3h-9.132V62.67h8.682v4.63h.193q3.409-5.53 10.226-5.53m34.344 0q14.535.064 14.535 9.453v17.622q0 4.888 1.157 7.075h-9.26a13.5 13.5 0 0 1-.644-3.216q-4.052 4.116-11.19 4.116-5.21 0-8.265-2.636c-3.055-2.637-3.055-4.203-3.055-7.332q0-4.567 2.894-7.075 2.959-2.637 10.74-3.344 5.532-.579 7.01-1.447c1.48-.868 1.48-1.47 1.48-2.67q0-2.25-1.35-3.344c-1.351-1.093-2.403-1.093-4.503-1.093q-2.894 0-4.373 1.19c-1.48 1.19-1.566 2.068-1.736 3.827H297.3q.322-5.467 4.502-8.297c4.18-2.83 6.518-2.83 11.19-2.83m-7.588 24.697q0 4.245 5.595 4.245 7.332-.065 7.396-7.525v-3.537q-1.093 1.093-5.531 1.607-3.859.45-5.66 1.576c-1.8 1.126-1.8 1.962-1.8 3.634m48.621-24.697q1.158 0 1.994.322v8.49a15.4 15.4 0 0 0-3.28-.322q-9.004 0-9.004 10.676V95.92h-9.133V62.67h8.683v6.174h.128q1.35-3.216 4.277-5.145c2.926-1.93 4.061-1.93 6.335-1.93m11.512.9 7.525 22.768h.129l7.267-22.767h9.454L376.02 100.1q-1.479 3.924-4.084 5.724c-2.604 1.801-4.148 1.801-7.235 1.801q-1.994 0-5.724-.321v-7.525q2.444.321 4.824.321 1.93 0 2.99-1.19c1.062-1.19 1.062-1.79 1.062-2.99q0-1.029-.386-2.058L355.762 62.67z" fill="#fff"/>
</svg>